<?xml version="1.0" encoding="utf-8"?>
<!-- Generator: Adobe Illustrator 19.1.0, SVG Export Plug-In . SVG Version: 6.00 Build 0)  -->
<svg version="1.1" id="Layer_1" xmlns="http://www.w3.org/2000/svg" xmlns:xlink="http://www.w3.org/1999/xlink" x="0px" y="0px"
	 viewBox="0 0 100 100" style="enable-background:new 0 0 100 100;" xml:space="preserve">
<g>
	<path d="M88.4,23.6L16.1,42.9c-4.7,1.3-9.6-1.5-10.8-6.2s1.5-9.6,6.2-10.8L83.9,6.5c4.7-1.3,9.6,1.5,10.8,6.2
		C96,17.5,93.2,22.3,88.4,23.6z"/>
	<path d="M88.4,48.8L16.1,68.2c-4.7,1.3-9.6-1.5-10.8-6.2s1.5-9.6,6.2-10.8l72.3-19.4c4.7-1.3,9.6,1.5,10.8,6.2
		C96,42.7,93.2,47.6,88.4,48.8z"/>
	<path d="M88.4,74.1L16.1,93.5c-4.7,1.3-9.6-1.5-10.8-6.2s1.5-9.6,6.2-10.8l72.3-19.4c4.7-1.3,9.6,1.5,10.8,6.2S93.2,72.9,88.4,74.1
		z"/>
	<path d="M83.9,82.4L41.1,93.8h53.4c0.6-1.6,0.7-3.4,0.2-5.2C93.4,83.9,88.6,81.1,83.9,82.4z"/>
	<path d="M5.5,6.2c-0.6,1.6-0.7,3.4-0.2,5.2c1.3,4.7,6.1,7.5,10.8,6.2L58.9,6.2H5.5z"/>
</g>
</svg>
