<?xml version="1.0" standalone="no"?>
<!DOCTYPE svg PUBLIC "-//W3C//DTD SVG 20010904//EN"
 "http://www.w3.org/TR/2001/REC-SVG-20010904/DTD/svg10.dtd">
<svg version="1.0" xmlns="http://www.w3.org/2000/svg"
 width="700.000000pt" height="700.000000pt" viewBox="0 0 700.000000 700.000000"
 preserveAspectRatio="xMidYMid meet">
<metadata>
Created by potrace 1.11, written by Peter Selinger 2001-2013
</metadata>
<g transform="translate(0.000000,700.000000) scale(0.100000,-0.100000)"
fill="#000000" stroke="none">
<path d="M378 6540 c-45 -119 -32 -301 32 -438 76 -163 222 -287 390 -332 74
-20 82 -21 165 -21 75 0 236 32 375 75 25 8 151 42 280 76 238 62 751 199
1090 290 102 27 322 86 490 131 168 44 355 94 415 110 61 16 117 31 125 33
172 44 339 89 354 95 10 3 -820 7 -1844 7 l-1862 0 -10 -26z"/>
<path d="M5925 6555 c-33 -7 -148 -36 -255 -64 -251 -68 -341 -92 -360 -96 -8
-2 -91 -24 -185 -50 -93 -26 -201 -55 -240 -65 -38 -10 -137 -37 -220 -59 -82
-22 -175 -47 -205 -55 -353 -93 -634 -169 -675 -181 -27 -8 -93 -25 -145 -39
-52 -14 -156 -41 -230 -61 -307 -83 -397 -107 -434 -116 -21 -5 -102 -27 -180
-48 -258 -70 -525 -142 -543 -146 -10 -2 -128 -33 -263 -70 -343 -93 -1049
-282 -1145 -307 -250 -64 -413 -222 -474 -459 -19 -71 -23 -216 -8 -275 34
-134 79 -216 167 -305 137 -138 335 -205 520 -177 30 5 223 54 430 109 206 55
544 145 750 200 206 55 425 114 485 130 61 17 118 32 127 34 10 2 118 31 240
64 123 33 318 85 433 115 116 31 242 65 280 75 39 11 124 34 190 52 287 75
325 85 700 186 72 19 162 43 200 53 39 10 120 32 180 48 61 17 171 46 245 66
144 37 143 37 435 116 105 28 198 53 207 55 50 11 221 59 280 79 136 46 255
143 330 268 107 175 115 398 23 593 -114 240 -399 383 -660 330z"/>
<path d="M5945 4789 c-27 -3 -111 -23 -185 -44 -74 -20 -142 -38 -150 -40 -18
-4 -59 -15 -485 -130 -176 -47 -327 -88 -335 -90 -8 -2 -73 -19 -145 -38 -197
-54 -461 -124 -545 -147 -41 -11 -140 -37 -220 -59 -267 -72 -460 -124 -1400
-375 -581 -156 -702 -188 -820 -221 -116 -32 -450 -121 -753 -202 -191 -50
-270 -87 -357 -166 -199 -179 -253 -491 -128 -745 79 -159 253 -285 443 -319
104 -19 181 -8 461 67 148 40 316 84 374 100 58 15 148 39 200 53 52 14 165
44 250 67 85 22 169 45 186 51 17 5 40 11 50 13 10 2 44 11 75 20 31 9 65 18
75 20 11 2 80 20 154 41 229 62 504 136 520 140 8 2 40 11 70 19 71 19 201 54
265 71 28 7 246 66 485 130 500 134 689 185 710 190 8 2 132 35 275 74 143 38
379 102 525 141 146 39 324 87 395 106 72 20 162 44 200 54 150 39 238 84 324
164 122 116 189 277 186 446 -2 102 -19 169 -70 275 -114 235 -369 371 -630
334z"/>
<path d="M5935 3017 c-27 -5 -225 -56 -440 -114 -214 -57 -424 -113 -465 -124
-112 -30 -242 -65 -367 -99 -62 -17 -121 -33 -130 -35 -10 -1 -43 -10 -74 -19
-31 -9 -65 -18 -75 -21 -11 -2 -120 -31 -244 -65 -124 -34 -232 -63 -240 -65
-8 -1 -76 -19 -150 -40 -74 -20 -211 -57 -305 -82 -93 -25 -226 -60 -295 -79
-69 -18 -235 -63 -370 -99 -135 -36 -285 -77 -335 -90 -49 -13 -175 -47 -280
-75 -253 -68 -287 -77 -670 -180 -372 -100 -452 -121 -562 -151 -43 -11 -85
-22 -93 -24 -41 -8 -141 -47 -185 -71 -74 -41 -184 -156 -227 -239 -55 -106
-72 -174 -72 -295 -1 -190 59 -330 199 -458 107 -98 248 -154 390 -156 111 -1
97 -4 650 145 61 16 118 31 127 34 10 2 120 31 245 65 462 125 1272 342 1528
410 44 12 105 28 135 36 30 8 69 19 86 25 17 5 40 11 50 13 10 2 87 22 169 44
83 23 186 50 230 62 125 33 169 45 334 90 84 23 161 43 170 45 23 6 332 89
676 182 50 13 95 26 100 27 25 7 113 30 266 72 91 24 174 46 185 49 122 26
373 104 429 133 84 44 187 143 232 224 68 120 101 290 78 408 -33 174 -105
297 -230 396 -125 99 -316 148 -470 121z"/>
<path d="M5965 1248 c-33 -4 -154 -32 -268 -63 -114 -31 -215 -58 -225 -60 -9
-2 -75 -19 -147 -39 -122 -33 -1622 -433 -1655 -441 -13 -3 -341 -90 -647
-172 -57 -15 -103 -30 -103 -33 0 -3 831 -6 1846 -6 l1847 1 14 40 c39 114 24
295 -37 424 -46 96 -144 211 -219 255 -70 41 -108 58 -173 75 -88 24 -153 29
-233 19z"/>
</g>
</svg>
